<svg width="51" height="40" viewBox="0 0 51 40" fill="none" xmlns="http://www.w3.org/2000/svg">
<path d="M12.7038 0L23.038 8.82887C23.6515 9.35302 24.0051 10.1222 24.0051 10.9323V17.5862L13.671 8.75734C13.0574 8.23319 12.7038 7.464 12.7038 6.65386V0Z" fill="white"></path>
<path d="M12.7038 40L23.038 31.1711C23.6515 30.647 24.0051 29.8778 24.0051 29.0677V22.4138L13.671 31.2427C13.0574 31.7668 12.7038 32.536 12.7038 33.3461V40Z" fill="white"></path>
<path d="M0.375 9.31034L10.5686 17.9705C11.0628 18.3904 11.6887 18.6207 12.3353 18.6207H20.556L10.3875 9.96253C9.89295 9.54141 9.26618 9.31034 8.61846 9.31034H0.375Z" fill="white"></path>
<path d="M0.375 30.6897L10.5059 22.0345C11.001 21.6115 11.6292 21.3793 12.2784 21.3793H20.5805L10.3869 30.0394C9.89269 30.4593 9.26685 30.6897 8.62017 30.6897H0.375Z" fill="white"></path>
<path d="M38.0462 0L27.712 8.82887C27.0985 9.35302 26.7449 10.1222 26.7449 10.9323V17.5862L37.079 8.75734C37.6926 8.23319 38.0462 7.464 38.0462 6.65386V0Z" fill="white"></path>
<path d="M38.0462 40L27.712 31.1711C27.0985 30.647 26.7449 29.8778 26.7449 29.0677V22.4138L37.079 31.2427C37.6926 31.7668 38.0462 32.536 38.0462 33.3461V40Z" fill="white"></path>
<path d="M50.375 9.31034L40.1814 17.9705C39.6872 18.3904 39.0613 18.6207 38.4147 18.6207H30.194L40.3625 9.96253C40.8571 9.54141 41.4838 9.31034 42.1315 9.31034H50.375Z" fill="white"></path>
<path d="M50.375 30.6897L40.2441 22.0345C39.749 21.6115 39.1208 21.3793 38.4716 21.3793H30.1695L40.3631 30.0394C40.8573 30.4593 41.4831 30.6897 42.1298 30.6897H50.375Z" fill="white"></path>
</svg>